<mxfile host="app.diagrams.net" modified="2023-10-21T07:50:46.222Z" agent="Mozilla/5.0 (Windows NT 10.0; Win64; x64) AppleWebKit/537.36 (KHTML, like Gecko) Chrome/118.0.0.0 Safari/537.36" etag="N2gmXMaWKzfzt26pikf0" version="22.0.6" type="github">
  <diagram name="Strona-1" id="4Y_PucGIenyHwfb1w7gT">
    <mxGraphModel dx="2261" dy="878" grid="1" gridSize="10" guides="1" tooltips="1" connect="1" arrows="1" fold="1" page="1" pageScale="1" pageWidth="827" pageHeight="1169" math="0" shadow="0">
      <root>
        <mxCell id="0" />
        <mxCell id="1" parent="0" />
        <mxCell id="aZIAB16V33OScnvHMo2g-2" value="Profile Page" style="rounded=0;whiteSpace=wrap;html=1;rotation=-90;fontStyle=1;fillColor=#f5f5f5;fontColor=#333333;strokeColor=#666666;" vertex="1" parent="1">
          <mxGeometry x="-890" y="155" width="195" height="30" as="geometry" />
        </mxCell>
        <mxCell id="aZIAB16V33OScnvHMo2g-7" value="Home Page" style="rounded=0;whiteSpace=wrap;html=1;rotation=-90;fontStyle=1;fillColor=#dae8fc;strokeColor=#6c8ebf;" vertex="1" parent="1">
          <mxGeometry x="-890" y="352.5" width="195" height="30" as="geometry" />
        </mxCell>
        <mxCell id="aZIAB16V33OScnvHMo2g-8" value="Database" style="rounded=0;whiteSpace=wrap;html=1;rotation=-90;fontStyle=1;fillColor=#d5e8d4;strokeColor=#82b366;" vertex="1" parent="1">
          <mxGeometry x="-890" y="552.5" width="195" height="30" as="geometry" />
        </mxCell>
        <mxCell id="aZIAB16V33OScnvHMo2g-9" value="Post Ad Page" style="rounded=0;whiteSpace=wrap;html=1;rotation=-90;fillColor=#ffe6cc;strokeColor=#d79b00;" vertex="1" parent="1">
          <mxGeometry x="-890" y="752.5" width="195" height="30" as="geometry" />
        </mxCell>
        <mxCell id="aZIAB16V33OScnvHMo2g-10" value="View Ad Page" style="rounded=0;whiteSpace=wrap;html=1;rotation=-90;fillColor=#f8cecc;strokeColor=#b85450;" vertex="1" parent="1">
          <mxGeometry x="-890" y="952.5" width="195" height="30" as="geometry" />
        </mxCell>
        <mxCell id="aZIAB16V33OScnvHMo2g-12" value="Design Profile Page" style="rounded=1;whiteSpace=wrap;html=1;fontStyle=1" vertex="1" parent="1">
          <mxGeometry x="-732.5" y="150" width="90" height="40" as="geometry" />
        </mxCell>
        <mxCell id="aZIAB16V33OScnvHMo2g-14" value="Design Home Page" style="rounded=1;whiteSpace=wrap;html=1;fontStyle=1" vertex="1" parent="1">
          <mxGeometry x="-732.5" y="342.5" width="90" height="40" as="geometry" />
        </mxCell>
        <mxCell id="aZIAB16V33OScnvHMo2g-15" value="Design Database" style="rounded=1;whiteSpace=wrap;html=1;fontStyle=1" vertex="1" parent="1">
          <mxGeometry x="-732.5" y="542.5" width="90" height="40" as="geometry" />
        </mxCell>
        <mxCell id="aZIAB16V33OScnvHMo2g-16" value="Design Post Ad Page" style="rounded=1;whiteSpace=wrap;html=1;fontStyle=1" vertex="1" parent="1">
          <mxGeometry x="-732.5" y="742.5" width="90" height="40" as="geometry" />
        </mxCell>
        <mxCell id="aZIAB16V33OScnvHMo2g-17" value="Design View Ad Page" style="rounded=1;whiteSpace=wrap;html=1;fontStyle=1" vertex="1" parent="1">
          <mxGeometry x="-732.5" y="942.5" width="90" height="40" as="geometry" />
        </mxCell>
        <mxCell id="aZIAB16V33OScnvHMo2g-18" value="&lt;font style=&quot;font-size: 9px;&quot;&gt;1&lt;/font&gt;" style="whiteSpace=wrap;html=1;aspect=fixed;fontStyle=1" vertex="1" parent="1">
          <mxGeometry x="-652.5" y="972.5" width="20" height="20" as="geometry" />
        </mxCell>
        <mxCell id="aZIAB16V33OScnvHMo2g-20" value="&lt;font style=&quot;font-size: 9px;&quot;&gt;1&lt;/font&gt;" style="whiteSpace=wrap;html=1;aspect=fixed;fontStyle=1" vertex="1" parent="1">
          <mxGeometry x="-652.5" y="772.5" width="20" height="20" as="geometry" />
        </mxCell>
        <mxCell id="aZIAB16V33OScnvHMo2g-22" value="&lt;font style=&quot;font-size: 9px;&quot;&gt;1&lt;/font&gt;" style="whiteSpace=wrap;html=1;aspect=fixed;fontStyle=1" vertex="1" parent="1">
          <mxGeometry x="-652.5" y="185" width="20" height="20" as="geometry" />
        </mxCell>
        <mxCell id="aZIAB16V33OScnvHMo2g-23" value="&lt;font style=&quot;font-size: 9px;&quot;&gt;2&lt;/font&gt;" style="whiteSpace=wrap;html=1;aspect=fixed;fontStyle=1" vertex="1" parent="1">
          <mxGeometry x="-652.5" y="370" width="20" height="20" as="geometry" />
        </mxCell>
        <mxCell id="aZIAB16V33OScnvHMo2g-24" value="&lt;font style=&quot;font-size: 9px;&quot;&gt;3&lt;/font&gt;" style="whiteSpace=wrap;html=1;aspect=fixed;fontStyle=1" vertex="1" parent="1">
          <mxGeometry x="-652.5" y="575" width="20" height="20" as="geometry" />
        </mxCell>
        <mxCell id="aZIAB16V33OScnvHMo2g-25" value="Program Profile Page" style="rounded=1;whiteSpace=wrap;html=1;fontStyle=1" vertex="1" parent="1">
          <mxGeometry x="-600" y="100" width="90" height="40" as="geometry" />
        </mxCell>
        <mxCell id="aZIAB16V33OScnvHMo2g-26" value="Write Profile Page Manual" style="rounded=1;whiteSpace=wrap;html=1;fontStyle=1" vertex="1" parent="1">
          <mxGeometry x="-600" y="210" width="90" height="40" as="geometry" />
        </mxCell>
        <mxCell id="aZIAB16V33OScnvHMo2g-27" value="" style="endArrow=classic;html=1;rounded=0;exitX=1;exitY=0.5;exitDx=0;exitDy=0;entryX=0;entryY=0.5;entryDx=0;entryDy=0;" edge="1" parent="1" source="aZIAB16V33OScnvHMo2g-12" target="aZIAB16V33OScnvHMo2g-25">
          <mxGeometry width="50" height="50" relative="1" as="geometry">
            <mxPoint x="-620" y="160" as="sourcePoint" />
            <mxPoint x="-590" y="130" as="targetPoint" />
          </mxGeometry>
        </mxCell>
        <mxCell id="aZIAB16V33OScnvHMo2g-28" value="" style="endArrow=classic;html=1;rounded=0;entryX=0.1;entryY=-0.1;entryDx=0;entryDy=0;entryPerimeter=0;" edge="1" parent="1" target="aZIAB16V33OScnvHMo2g-26">
          <mxGeometry width="50" height="50" relative="1" as="geometry">
            <mxPoint x="-642.5" y="170" as="sourcePoint" />
            <mxPoint x="-602.5" y="190" as="targetPoint" />
            <Array as="points">
              <mxPoint x="-622.5" y="180" />
            </Array>
          </mxGeometry>
        </mxCell>
        <mxCell id="aZIAB16V33OScnvHMo2g-30" value="Program Home Page" style="rounded=1;whiteSpace=wrap;html=1;fontStyle=1" vertex="1" parent="1">
          <mxGeometry x="-600" y="292.5" width="90" height="40" as="geometry" />
        </mxCell>
        <mxCell id="aZIAB16V33OScnvHMo2g-31" value="Write Home Page Manual" style="rounded=1;whiteSpace=wrap;html=1;fontStyle=1" vertex="1" parent="1">
          <mxGeometry x="-600" y="402.5" width="90" height="40" as="geometry" />
        </mxCell>
        <mxCell id="aZIAB16V33OScnvHMo2g-32" value="" style="endArrow=classic;html=1;rounded=0;exitX=1;exitY=0.5;exitDx=0;exitDy=0;entryX=0;entryY=0.5;entryDx=0;entryDy=0;" edge="1" parent="1" target="aZIAB16V33OScnvHMo2g-30">
          <mxGeometry width="50" height="50" relative="1" as="geometry">
            <mxPoint x="-642" y="362.5" as="sourcePoint" />
            <mxPoint x="-590" y="322.5" as="targetPoint" />
          </mxGeometry>
        </mxCell>
        <mxCell id="aZIAB16V33OScnvHMo2g-33" value="" style="endArrow=classic;html=1;rounded=0;entryX=0.1;entryY=-0.1;entryDx=0;entryDy=0;entryPerimeter=0;" edge="1" parent="1" target="aZIAB16V33OScnvHMo2g-31">
          <mxGeometry width="50" height="50" relative="1" as="geometry">
            <mxPoint x="-642.5" y="362.5" as="sourcePoint" />
            <mxPoint x="-602.5" y="382.5" as="targetPoint" />
            <Array as="points">
              <mxPoint x="-622.5" y="372.5" />
            </Array>
          </mxGeometry>
        </mxCell>
        <mxCell id="aZIAB16V33OScnvHMo2g-34" value="Program Post Ad Page" style="rounded=1;whiteSpace=wrap;html=1;fontStyle=1" vertex="1" parent="1">
          <mxGeometry x="-600" y="692.5" width="90" height="40" as="geometry" />
        </mxCell>
        <mxCell id="aZIAB16V33OScnvHMo2g-35" value="Write Post Ad Page Manual" style="rounded=1;whiteSpace=wrap;html=1;fontStyle=1" vertex="1" parent="1">
          <mxGeometry x="-600" y="802.5" width="90" height="40" as="geometry" />
        </mxCell>
        <mxCell id="aZIAB16V33OScnvHMo2g-36" value="" style="endArrow=classic;html=1;rounded=0;exitX=1;exitY=0.5;exitDx=0;exitDy=0;entryX=0;entryY=0.5;entryDx=0;entryDy=0;" edge="1" parent="1" target="aZIAB16V33OScnvHMo2g-34">
          <mxGeometry width="50" height="50" relative="1" as="geometry">
            <mxPoint x="-642" y="762.5" as="sourcePoint" />
            <mxPoint x="-590" y="722.5" as="targetPoint" />
          </mxGeometry>
        </mxCell>
        <mxCell id="aZIAB16V33OScnvHMo2g-37" value="" style="endArrow=classic;html=1;rounded=0;entryX=0.1;entryY=-0.1;entryDx=0;entryDy=0;entryPerimeter=0;" edge="1" parent="1" target="aZIAB16V33OScnvHMo2g-35">
          <mxGeometry width="50" height="50" relative="1" as="geometry">
            <mxPoint x="-642.5" y="762.5" as="sourcePoint" />
            <mxPoint x="-602.5" y="782.5" as="targetPoint" />
            <Array as="points">
              <mxPoint x="-622.5" y="772.5" />
            </Array>
          </mxGeometry>
        </mxCell>
        <mxCell id="aZIAB16V33OScnvHMo2g-38" value="Program View Ad Page" style="rounded=1;whiteSpace=wrap;html=1;fontStyle=1" vertex="1" parent="1">
          <mxGeometry x="-600" y="892.5" width="90" height="40" as="geometry" />
        </mxCell>
        <mxCell id="aZIAB16V33OScnvHMo2g-39" value="Write View Ad Page Manual" style="rounded=1;whiteSpace=wrap;html=1;fontStyle=1" vertex="1" parent="1">
          <mxGeometry x="-600" y="1002.5" width="90" height="40" as="geometry" />
        </mxCell>
        <mxCell id="aZIAB16V33OScnvHMo2g-40" value="" style="endArrow=classic;html=1;rounded=0;exitX=1;exitY=0.5;exitDx=0;exitDy=0;entryX=0;entryY=0.5;entryDx=0;entryDy=0;" edge="1" parent="1" target="aZIAB16V33OScnvHMo2g-38">
          <mxGeometry width="50" height="50" relative="1" as="geometry">
            <mxPoint x="-642" y="962.5" as="sourcePoint" />
            <mxPoint x="-590" y="922.5" as="targetPoint" />
          </mxGeometry>
        </mxCell>
        <mxCell id="aZIAB16V33OScnvHMo2g-41" value="" style="endArrow=classic;html=1;rounded=0;entryX=0.1;entryY=-0.1;entryDx=0;entryDy=0;entryPerimeter=0;" edge="1" parent="1" target="aZIAB16V33OScnvHMo2g-39">
          <mxGeometry width="50" height="50" relative="1" as="geometry">
            <mxPoint x="-642.5" y="962.5" as="sourcePoint" />
            <mxPoint x="-602.5" y="982.5" as="targetPoint" />
            <Array as="points">
              <mxPoint x="-622.5" y="972.5" />
            </Array>
          </mxGeometry>
        </mxCell>
      </root>
    </mxGraphModel>
  </diagram>
</mxfile>
